<?xml version="1.0" encoding="utf-8"?>
<!-- Generator: Adobe Illustrator 27.5.0, SVG Export Plug-In . SVG Version: 6.00 Build 0)  -->
<svg version="1.1" xmlns="http://www.w3.org/2000/svg" xmlns:xlink="http://www.w3.org/1999/xlink" x="0px" y="0px"
	 viewBox="0 0 500 500" style="enable-background:new 0 0 500 500;" xml:space="preserve">
<g id="Floor">
	
		<line style="fill:none;stroke:#263238;stroke-width:2.5;stroke-linecap:round;stroke-linejoin:round;stroke-miterlimit:10;" x1="49.931" y1="448.789" x2="450.068" y2="448.789"/>
</g>
<g id="Gears">
	<g>
		<path style="fill:none;stroke:#9ABAE3;stroke-width:2.5;stroke-linecap:round;stroke-linejoin:round;stroke-miterlimit:10;" d="
			M126.62,413.932c0.53,0.399,1.099,0.764,1.698,1.085c0.604,0.324,1.218,0.595,1.843,0.812l0.131,4.21l9.186-0.285l-0.13-4.227l0,0
			c1.23-0.512,2.381-1.22,3.407-2.102l3.716,1.993l4.345-8.102l-3.716-1.993c0.166-1.342,0.12-2.694-0.134-4.001l3.592-2.23
			l-4.844-7.81l-3.597,2.228c-0.519-0.407-1.085-0.767-1.682-1.088c-0.597-0.319-1.209-0.592-1.843-0.801l-0.127-4.227l-9.186,0.285
			l0.134,4.22c-1.231,0.513-2.382,1.226-3.411,2.109c0,0,0,0,0,0l-3.715-1.992l-4.345,8.102l3.717,1.993c0,0,0,0,0,0
			c-0.169,1.344-0.124,2.697,0.128,4.007v0l-3.589,2.223l4.845,7.81L126.62,413.932z M126.769,404.428
			c-0.169-8.32,9.875-11.351,14.337-4.327c0.553,0.871,0.858,1.885,0.876,2.917c0.147,8.313-9.852,11.331-14.329,4.325
			C127.097,406.473,126.79,405.46,126.769,404.428z"/>
		<path style="fill:none;stroke:#9ABAE3;stroke-width:2.5;stroke-linecap:round;stroke-linejoin:round;stroke-miterlimit:10;" d="
			M74.66,396.82c0.826,0.622,1.712,1.191,2.646,1.691c0.941,0.505,1.898,0.927,2.872,1.265l0.204,6.559l14.312-0.445l-0.203-6.586
			c0,0,0,0,0,0c1.917-0.797,3.71-1.901,5.308-3.275l5.789,3.105l6.77-12.623l-5.789-3.105c0.259-2.091,0.187-4.197-0.208-6.234
			l5.597-3.474l-7.548-12.168l-5.604,3.472c-0.809-0.635-1.691-1.196-2.621-1.694c-0.93-0.498-1.883-0.923-2.871-1.249l-0.199-6.586
			l-14.312,0.445l0.208,6.575c-1.918,0.799-3.712,1.91-5.314,3.285h0l-5.789-3.104l-6.77,12.623l5.792,3.106c0,0,0,0,0,0
			c-0.264,2.094-0.194,4.203,0.2,6.243l0,0l-5.591,3.463l7.548,12.168L74.66,396.82z M74.892,382.012
			c-0.263-12.962,15.385-17.686,22.337-6.742c0.862,1.357,1.337,2.937,1.365,4.545c0.229,12.952-15.35,17.654-22.325,6.738
			C75.404,385.198,74.925,383.619,74.892,382.012z"/>
		<path style="fill:none;stroke:#9ABAE3;stroke-width:2.5;stroke-linecap:round;stroke-linejoin:round;stroke-miterlimit:10;" d="
			M405.199,88.481c1.193,0.898,2.473,1.72,3.821,2.442c1.359,0.729,2.741,1.339,4.148,1.827l0.294,9.475l20.673-0.643l-0.293-9.513
			c0,0,0,0,0,0c2.769-1.151,5.359-2.745,7.667-4.73l8.363,4.485l9.778-18.233l-8.362-4.484c0.375-3.02,0.27-6.062-0.301-9.005
			l8.084-5.018l-10.902-17.576l-8.095,5.015c-1.168-0.917-2.443-1.727-3.785-2.448c-1.343-0.719-2.72-1.333-4.148-1.804
			l-0.287-9.512L411.183,29.4l0.301,9.497c-2.77,1.154-5.362,2.759-7.676,4.745h0l-8.361-4.484l-9.779,18.234l8.365,4.486
			c0,0,0,0,0,0c-0.382,3.025-0.28,6.07,0.289,9.018l0,0l-8.076,5.003l10.902,17.576L405.199,88.481z M405.534,67.092
			c-0.38-18.724,22.222-25.546,32.265-9.739c1.245,1.96,1.931,4.243,1.972,6.564c0.331,18.708-22.172,25.5-32.247,9.733
			C406.274,71.695,405.582,69.414,405.534,67.092z"/>
	</g>
</g>
<g id="Character">
	<g>
		<g>
			<g>
				
					<path style="fill:#FCD8C3;stroke:#263238;stroke-width:2.5;stroke-linecap:round;stroke-linejoin:round;stroke-miterlimit:10;" d="
					M215.576,185.257c-0.661-1.621-11.415-14.221-11.522-21.43c-0.075-5.027,21.8-15.347,25.36-13.989
					c1.677,0.64,8.104,10.788,10.522,16.257C242.097,170.986,216.238,186.877,215.576,185.257z"/>
				
					<path style="fill:#FCD8C3;stroke:#263238;stroke-width:2.5;stroke-linecap:round;stroke-linejoin:round;stroke-miterlimit:10;" d="
					M237.21,163.391c0.109-9.084,5.732-18.932,2.698-21.611c-3.034-2.679-8.237,3.01-12.741,12.179"/>
				
					<path style="fill:#FFFFFF;stroke:#263238;stroke-width:2.5;stroke-linecap:round;stroke-linejoin:round;stroke-miterlimit:10;" d="
					M285.788,157.5c-15.53,8.146-29.455,22.398-29.455,22.398l-14.201-13.777c-5.91,1.763-7.947,5.805-12.855,10.277
					c-15.001,13.667-19.201,7.659-19.201,7.659s-1.374,4.798,2.097,9.37c8.925,11.755,23.253,21.944,28.241,26.042
					c7.863,6.462,20.333,6.568,25.122,3.031c4.495-3.32,33.756-29.822,41.504-47.698C311.317,164.934,302.157,148.914,285.788,157.5
					z"/>
				<path style="fill:#263238;" d="M209.267,184.353c-1.363-1.801,3.226-4.933,3.226-4.933l3.887,5.145
					C216.38,184.565,210.404,185.855,209.267,184.353z"/>
				<path style="fill:none;stroke:#263238;stroke-width:2.5;stroke-linecap:round;stroke-linejoin:round;stroke-miterlimit:10;" d="
					M256.739,179.282c0,0-2.353,2.11-5.525,6.919"/>
			</g>
			<g>
				<g>
					<g>
						<g>
							<polygon style="fill:#EC644E;" points="303.121,463.354 303.121,480.364 241.672,480.364 261.021,463.354 							"/>
							
								<polygon style="fill:none;stroke:#263238;stroke-width:2.5;stroke-linecap:round;stroke-linejoin:round;stroke-miterlimit:10;" points="
								303.121,463.354 303.121,480.364 241.672,480.364 261.021,463.354 							"/>
						</g>
						<g>
							
								<polygon style="fill:#FFFFFF;stroke:#263238;stroke-width:2.5;stroke-linecap:round;stroke-linejoin:round;stroke-miterlimit:10;" points="
								260.158,442.943 261.021,463.353 303.125,463.353 305.982,442.943 							"/>
							
								<line style="fill:none;stroke:#263238;stroke-width:2.5;stroke-linecap:round;stroke-linejoin:round;stroke-miterlimit:10;" x1="299.932" y1="448.789" x2="260.348" y2="448.789"/>
						</g>
						
							<line style="fill:none;stroke:#263238;stroke-width:2.5;stroke-linecap:round;stroke-linejoin:round;stroke-miterlimit:10;" x1="269.692" y1="468.143" x2="257.134" y2="464.331"/>
						
							<line style="fill:none;stroke:#263238;stroke-width:2.5;stroke-linecap:round;stroke-linejoin:round;stroke-miterlimit:10;" x1="266.436" y1="470.833" x2="253.879" y2="467.021"/>
					</g>
					<g>
						
							<path style="fill:#9ABAE3;stroke:#263238;stroke-width:2.5;stroke-linecap:round;stroke-linejoin:round;stroke-miterlimit:10;" d="
							M328.982,247.599h-57.909c-4.402,26.038-16.841,99.635-16.204,107.077c0.512,5.969-3.814,74.674-5.057,95.046
							c-0.307,5.028,4.462,9.835,4.462,9.835s-4.314-6.646,34.03-0.152c7.257,1.229,20.669,1.462,22.211-4.999
							c0.735-3.081-1.468-10.499-1.468-10.499c0.757-14.318,2.225-41.152,2.874-57.387c0.851-21.263-2.304-32.112-2.304-32.112
							C311.439,344.157,328.982,247.599,328.982,247.599z"/>
						
							<path style="fill:none;stroke:#263238;stroke-width:2.5;stroke-linecap:round;stroke-linejoin:round;stroke-miterlimit:10;" d="
							M282.551,277.055c0,0-12.595,66.48-12.54,76.581c0.031,5.598-3.41,91.569-3.41,91.569"/>
						<path style="fill:#263238;" d="M261.758,455.796l0.026,5.44c0,0-6.949,1.063-8.295-1.112
							C252.144,457.95,261.758,455.796,261.758,455.796z"/>
						
							<path style="fill:none;stroke:#263238;stroke-width:2.5;stroke-linecap:round;stroke-linejoin:round;stroke-miterlimit:10;" d="
							M286.172,255.301c0,0-1.298,18.945-13.292,15.274"/>
					</g>
				</g>
				<g>
					<g>
						<g>
							
								<polygon style="fill:#EC644E;stroke:#263238;stroke-width:2.5;stroke-linecap:round;stroke-linejoin:round;stroke-miterlimit:10;" points="
								348.53,463.354 343.452,480.364 401.735,480.364 390.63,463.354 							"/>
						</g>
						<g>
							
								<polygon style="fill:#FFFFFF;stroke:#263238;stroke-width:2.5;stroke-linecap:round;stroke-linejoin:round;stroke-miterlimit:10;" points="
								387.368,442.943 390.631,463.353 348.526,463.353 342.569,442.943 							"/>
							
								<line style="fill:none;stroke:#263238;stroke-width:2.5;stroke-linecap:round;stroke-linejoin:round;stroke-miterlimit:10;" x1="350.51" y1="448.789" x2="388.238" y2="448.789"/>
						</g>
						
							<line style="fill:none;stroke:#263238;stroke-width:2.5;stroke-linecap:round;stroke-linejoin:round;stroke-miterlimit:10;" x1="380.919" y1="468.143" x2="359.625" y2="468.143"/>
						
							<line style="fill:none;stroke:#263238;stroke-width:2.5;stroke-linecap:round;stroke-linejoin:round;stroke-miterlimit:10;" x1="382.413" y1="471.859" x2="361.118" y2="471.859"/>
					</g>
					<g>
						<g>
							<path style="fill:#9ABAE3;" d="M297.368,286.412c3.965,1.762,9.865,3.854,10.349,6.867
								c4.983,31.037,18.976,65.491,19.424,74.9c0.94,19.775,9.686,56.846,12.985,74.709c0,0-1.242,11.06,1.136,13.992
								c2.93,3.612,2.045,1.495,14.953,0.418c39.517-3.299,38.527,0.599,38.527,0.599s7.856-4.607,5.619-13.488
								c-7.949-31.566-17.242-75.489-19.442-87.539c-0.894-4.898-24.949-109.271-24.949-109.271h-54.635"/>
							<path style="fill:#FFFFFF;" d="M394.743,457.892c0,0,0.309-1.2-6.172-1.7c2.145-2.082,4.918-6.036,3.472-11.781
								c-7.945-31.57-17.235-75.492-19.434-87.546c-0.9-4.89-24.952-109.271-24.952-109.271h8.317c0,0,24.052,104.38,24.943,109.271
								c2.2,12.053,11.499,55.976,19.444,87.546C402.597,453.293,394.743,457.892,394.743,457.892z"/>
							
								<path style="fill:none;stroke:#263238;stroke-width:2.5;stroke-linecap:round;stroke-linejoin:round;stroke-miterlimit:10;" d="
								M297.368,286.412c3.965,1.762,9.865,3.854,10.349,6.867c4.983,31.037,18.976,65.491,19.424,74.9
								c0.94,19.775,9.686,56.846,12.985,74.709c0,0-1.242,11.06,1.136,13.992c2.93,3.612,2.045,1.495,14.953,0.418
								c39.517-3.299,38.527,0.599,38.527,0.599s7.856-4.607,5.619-13.488c-7.949-31.566-17.242-75.489-19.442-87.539
								c-0.894-4.898-24.949-109.271-24.949-109.271h-54.635"/>
						</g>
						<path style="fill:#263238;" d="M388.804,455.724l0.481,4.081c0,0,5.377,0.665,6.401-1.51
							C396.71,456.12,388.804,455.724,388.804,455.724z"/>
						
							<path style="fill:none;stroke:#263238;stroke-width:2.5;stroke-linecap:round;stroke-linejoin:round;stroke-miterlimit:10;" d="
							M331.232,255.301c0,0,1.97,18.945,20.179,15.274"/>
						
							<path style="fill:none;stroke:#263238;stroke-width:2.5;stroke-linecap:round;stroke-linejoin:round;stroke-miterlimit:10;" d="
							M296.092,252.637c0,0-0.829,25.666,0.664,28.015c1.493,2.349,6.5,1.159,7.088,0.718c0.587-0.441,0-28.733,0-28.733"/>
						
							<path style="fill:none;stroke:#263238;stroke-width:2.5;stroke-linecap:round;stroke-linejoin:round;stroke-miterlimit:10;" d="
							M332.479,277.798c0,0,23.138,83.234,23.237,87.1c0.099,3.866,10.884,43.685,15.823,80.306"/>
					</g>
				</g>
			</g>
			<g>
				<g>
					<g>
						<g>
							<path style="fill:#EC644E;" d="M294.426,155.621c6.307-1.579,16.653-0.272,21.458,0.01
								c12.364,0.726,19.893-1.681,28.622,8.271c8.364,9.536,10.011,31.668,13.962,56.001c0,0,5.342,13.132,4.573,23.554
								c-0.422,5.717-2.837,9.563-5.188,10.7c0,0-82.75,2.434-88.583-0.487c-3.711-1.859-9.985-4.321-5.947-20.206
								c1.572-6.183,9.711-46.006,12.139-54.387C278.873,167.312,285.766,157.789,294.426,155.621z"/>
						</g>
						<g>
							<path style="fill:#FFFFFF;" d="M363.046,243.455c-0.428,5.718-2.838,9.568-5.196,10.705c0,0-34.714,1.023-60.758,0.939
								c25.052-0.063,54.716-0.939,54.716-0.939c2.348-1.137,4.768-4.988,5.186-10.705c0.772-10.424-4.57-23.55-4.57-23.55
								c-3.955-24.332-5.603-46.463-13.961-56c-8.733-9.954-16.267-7.554-28.631-8.274c-2.4-0.136-6.177-0.532-10.152-0.699
								c5.822-0.303,12.583,0.49,16.204,0.699c12.365,0.72,19.898-1.68,28.621,8.274c8.368,9.537,10.017,31.667,13.961,56
								C358.465,219.906,363.807,233.032,363.046,243.455z"/>
						</g>
						<g>
							
								<path style="fill:none;stroke:#263238;stroke-width:2.5;stroke-linecap:round;stroke-linejoin:round;stroke-miterlimit:10;" d="
								M294.426,155.621c6.307-1.579,16.653-0.272,21.458,0.01c12.364,0.726,19.893-1.681,28.622,8.271
								c8.364,9.536,10.011,31.668,13.962,56.001c0,0,5.342,13.132,4.573,23.554c-0.422,5.717-2.837,9.563-5.188,10.7
								c0,0-82.75,2.434-88.583-0.487c-3.711-1.859-9.985-4.321-5.947-20.206c1.572-6.183,9.711-46.006,12.139-54.387
								C278.873,167.312,285.766,157.789,294.426,155.621z"/>
						</g>
					</g>
					
						<path style="fill:none;stroke:#263238;stroke-width:2.5;stroke-linecap:round;stroke-linejoin:round;stroke-miterlimit:10;" d="
						M355.294,248.071c0,0-10.072,6.008-21.461,6.655c-11.389,0.648-22.441-5.377-22.441-5.377"/>
					
						<path style="fill:none;stroke:#263238;stroke-width:2.5;stroke-linecap:round;stroke-linejoin:round;stroke-miterlimit:10;" d="
						M285.308,254.775c-4.457-0.679-12.38-6.704-12.38-6.704"/>
				</g>
				
					<rect x="267.828" y="254.156" style="fill:#263238;stroke:#263238;stroke-width:2.5;stroke-linecap:round;stroke-linejoin:round;stroke-miterlimit:10;" width="91.364" height="5.79"/>
			</g>
			<g>
				<path style="fill:none;stroke:#263238;stroke-width:2.5;stroke-linecap:round;stroke-linejoin:round;stroke-miterlimit:10;" d="
					M294.237,160.753c-1.108,3.108-0.998,11.976,6.983,23.171c0,0,15.076-11.093,20.839-18.733"/>
				
					<path style="fill:#FFFFFF;stroke:#263238;stroke-width:2.5;stroke-linecap:round;stroke-linejoin:round;stroke-miterlimit:10;" d="
					M306.556,156.62c-9.473,2.677-9.259,10.974-3.939,19.952c0,0,11.204-6.792,13.749-12.596S310.693,155.45,306.556,156.62z"/>
				
					<path style="fill:#FFFFFF;stroke:#263238;stroke-width:2.5;stroke-linecap:round;stroke-linejoin:round;stroke-miterlimit:10;" d="
					M308.946,151.68c-10.112,1.687-11.981,14.454-11.221,14.758c0.76,0.304,8.319-2.052,8.319-2.052s6.512,4.142,8.336,4.219
					c0,0,5.445-2.577,5.258-9.842C319.454,151.671,313.621,150.9,308.946,151.68z"/>
				<g>
					<path style="fill:#263238;" d="M305.863,158.388c0,0-3.156,5.025-0.329,5.527c4.432,0.788,10.279-6.385,10.279-6.385
						L305.863,158.388z"/>
					<g>
						<g>
							<path style="fill:#FCD8C3;" d="M297.995,143.749c-1.829,7.363,1.716,14.582,7.919,16.122
								c6.203,1.541,12.714-3.18,14.543-10.544c1.829-7.364-1.716-14.582-7.919-16.122
								C306.335,131.664,299.824,136.385,297.995,143.749z"/>
							<path style="fill:#FFFFFF;" d="M312.537,133.204c-1.731-0.429-3.491-0.371-5.161,0.102c0.843-0.026,1.689,0.062,2.534,0.269
								c5.879,1.464,9.239,8.305,7.507,15.288c-1.736,6.983-7.909,11.456-13.787,9.997c-0.148-0.038-0.3-0.076-0.444-0.124
								c0.835,0.507,1.749,0.893,2.729,1.135c6.2,1.538,12.712-3.181,14.542-10.545
								C322.287,141.963,318.742,134.747,312.537,133.204z"/>
							
								<path style="fill:none;stroke:#263238;stroke-width:2.5;stroke-linecap:round;stroke-linejoin:round;stroke-miterlimit:10;" d="
								M297.995,143.749c-1.829,7.363,1.716,14.582,7.919,16.122c6.203,1.541,12.714-3.18,14.543-10.544
								c1.829-7.364-1.716-14.582-7.919-16.122C306.335,131.664,299.824,136.385,297.995,143.749z"/>
						</g>
						<path style="fill:#263238;" d="M320.193,150.267c0,0-6.295-2.18-7.212-11.013c0,0-7.951,1.731-9.816-3.766
							c0,0,8.766-6.291,14.743,1.124C323.886,144.029,320.193,150.267,320.193,150.267z"/>
						<circle style="fill:#263238;" cx="303.186" cy="132.913" r="5.44"/>
					</g>
				</g>
			</g>
			
				<path style="fill:#FFFFFF;stroke:#9ABAE3;stroke-width:2.5;stroke-linecap:round;stroke-linejoin:round;stroke-miterlimit:10;" d="
				M205.943,219.269c1.829,1.377,3.79,2.635,5.856,3.742c2.082,1.117,4.201,2.052,6.357,2.8l0.451,14.52l31.681-0.985l-0.449-14.578
				c0,0,0,0,0,0c4.243-1.764,8.213-4.207,11.749-7.248l12.816,6.872l14.985-27.942l-12.814-6.872
				c0.574-4.629,0.414-9.29-0.461-13.801l12.389-7.69l-16.707-26.935l-12.406,7.685c-1.79-1.405-3.743-2.647-5.801-3.751
				c-2.058-1.102-4.168-2.043-6.356-2.765l-0.439-14.578l-31.682,0.984l0.461,14.554c-4.245,1.769-8.217,4.228-11.763,7.272h0
				l-12.814-6.872l-14.986,27.943l12.82,6.875c0,0,0,0,0,0.001c-0.585,4.635-0.429,9.303,0.442,13.82l0,0l-12.376,7.667
				l16.708,26.935L205.943,219.269z M206.456,186.49c-0.583-28.694,34.055-39.149,49.445-14.924
				c1.908,3.004,2.959,6.502,3.022,10.06c0.507,28.67-33.978,39.078-49.418,14.916C207.589,193.543,206.528,190.048,206.456,186.49z
				"/>
			<g>
				<g>
					<g>
						
							<path style="fill:#FCD8C3;stroke:#263238;stroke-width:2.5;stroke-linecap:round;stroke-linejoin:round;stroke-miterlimit:10;" d="
							M285.207,198.829c-4.734-0.798-7.601-3.231-7.601-3.231s-10.089-14.522-14.217-11.015c-3.299,2.804,2.899,12.385,2.899,12.385
							s-10.839-6.1-14.07-7.135c-5.04-1.601-5.365,3.593-5.365,3.593s-3.247,0.113-3.636,3.212c-0.224,1.785,1.46,5.042,1.46,5.042
							s-5.824,6.228,8.577,15.315c7.736,4.882,15.341,8.896,22.673,12.171L285.207,198.829z"/>
						
							<path style="fill:none;stroke:#263238;stroke-width:2.5;stroke-linecap:round;stroke-linejoin:round;stroke-miterlimit:10;" d="
							M246.851,193.427c0,0-0.705,3.165,9.481,9.842"/>
						
							<path style="fill:none;stroke:#263238;stroke-width:2.5;stroke-linecap:round;stroke-linejoin:round;stroke-miterlimit:10;" d="
							M244.374,201.03c0,0,1.9,4.774,9.603,9.145"/>
						<g>
							
								<path style="fill:none;stroke:#263238;stroke-width:2.5;stroke-linecap:round;stroke-linejoin:round;stroke-miterlimit:10;" d="
								M270.932,189.553c0,0-2.076,1.651-4.248,0.552c-2.173-1.099-3.198-4.733-3.198-4.733"/>
						</g>
					</g>
				</g>
				
					<path style="fill:#FFFFFF;stroke:#263238;stroke-width:2.5;stroke-linecap:round;stroke-linejoin:round;stroke-miterlimit:10;" d="
					M335.124,159.016c10.2,1.716,18.189,15.118,11.428,39.408c-5.635,20.242-9.427,37.754-19.899,47.489
					c-3.151,2.93-12.54,6.066-23.436,3.02c-16.258-4.546-40.268-20.784-40.268-20.784s6.185,0.961,12.051-13.93
					c6.357-16.135,8.448-18.304,8.448-18.304s12.837,5.116,22.554,9.689c0,0,4.414-15.709,6.316-21.37
					C320.6,159.579,327.371,157.711,335.124,159.016z"/>
				<path style="fill:#263238;" d="M262.064,228.745c-2.151-0.904,2.084-6.077,2.084-6.077l3.992,2.436
					C268.14,225.104,263.858,229.499,262.064,228.745z"/>
				<path style="fill:none;stroke:#263238;stroke-width:2.5;stroke-linecap:round;stroke-linejoin:round;stroke-miterlimit:10;" d="
					M306.002,205.603c4.171,1.747,9.289,5.757,9.289,5.757"/>
			</g>
		</g>
		
			<path style="fill:#FCD8C3;stroke:#263238;stroke-width:2.5;stroke-linecap:round;stroke-linejoin:round;stroke-miterlimit:10;" d="
			M214.855,139.628c-2.108-2.557-3.959-6.104-0.65-8.676c3.309-2.573,12.681,2.983,14.527,4.581c2.42,2.094,0.646,5.994-4.361,4.982
			c-4.554-0.92-6.054-1.243-6.054-1.243"/>
		
			<path style="fill:#FCD8C3;stroke:#263238;stroke-width:2.5;stroke-linecap:round;stroke-linejoin:round;stroke-miterlimit:10;" d="
			M205.99,142.625c-1.425-3.294-2.287-7.54,1.93-9.223c4.216-1.683,12.299,6.914,13.74,9.13c1.889,2.906-1.129,6.431-6.035,3.874
			c-4.462-2.326-5.925-3.112-5.925-3.112"/>
		
			<path style="fill:#FCD8C3;stroke:#263238;stroke-width:2.5;stroke-linecap:round;stroke-linejoin:round;stroke-miterlimit:10;" d="
			M200.337,148.203c-0.353-3.364,0.012-6.501,1.916-7.658c3.724-2.263,12.971,3.894,14.786,5.668
			c2.379,2.326,0.292,6.261-4.84,4.895c-4.667-1.242-7.185-1.393-7.185-1.393"/>
		
			<polyline style="fill:none;stroke:#9ABAE3;stroke-width:2.5;stroke-linecap:round;stroke-linejoin:round;stroke-miterlimit:10;" points="
			203.81,150.554 203.81,150.554 196.714,146.748 		"/>
	</g>
</g>
<g id="Graphic">
	<g>
		
			<path style="fill:#9ABAE3;stroke:#263238;stroke-width:2.5;stroke-linecap:round;stroke-linejoin:round;stroke-miterlimit:10;" d="
			M439.114,329.834h-196.12c-80.478,0-145.952-65.474-145.952-145.951c0-17.016,2.907-33.696,8.642-49.576l40.486,14.62
			c-4.036,11.177-6.083,22.938-6.083,34.955c0,56.743,46.164,102.906,102.907,102.906h196.12l14.022,21.523L439.114,329.834z"/>
		
			<path style="fill:#EC644E;stroke:#263238;stroke-width:2.5;stroke-linecap:round;stroke-linejoin:round;stroke-miterlimit:10;" d="
			M388.944,183.881c0,40.107-16.271,76.502-42.55,102.91c-26.451,26.58-63.04,43.045-103.405,43.045v-43.045
			c56.744,0,102.91-46.166,102.91-102.91c0-20.629-6.069-40.516-17.563-57.519c-19.198-28.421-51.105-45.381-85.348-45.381
			c-7.619,0-15.227,0.829-22.577,2.475c-33.952,7.597-62.405,32.682-74.242,65.472l-26.36,9.569l-14.124-24.194
			c8.265-22.878,22.298-43.529,40.592-59.725c18.434-16.325,40.818-27.775,64.74-33.134c10.428-2.335,21.189-3.508,31.972-3.508
			c48.566,0,93.806,24.041,121.022,64.331C380.325,126.416,388.944,154.632,388.944,183.881z"/>
		
			<path style="fill:#FFFFFF;stroke:#263238;stroke-width:2.5;stroke-linecap:round;stroke-linejoin:round;stroke-miterlimit:10;" d="
			M242.994,329.834v-43.045c56.743,0,102.906-46.163,102.906-102.906c0-20.625-6.073-40.515-17.562-57.52
			c-19.199-28.419-51.104-45.386-85.344-45.386c-7.629,0-15.227,0.834-22.582,2.48l-19.052-16.762l9.654-25.245
			c10.436-2.335,21.195-3.518,31.98-3.518c48.559,0,93.798,24.05,121.012,64.333c16.315,24.149,24.939,52.372,24.939,81.618
			C388.945,264.36,323.471,329.834,242.994,329.834z"/>
		
			<path style="fill:#FFFFFF;stroke:#263238;stroke-width:2.5;stroke-linecap:round;stroke-linejoin:round;stroke-miterlimit:10;" d="
			M388.944,183.881c0,80.484-65.472,145.956-145.956,145.956v-43.045c56.744,0,102.91-46.166,102.91-102.91
			c0-20.629-6.069-40.516-17.563-57.519c-3.228-4.778-6.812-9.233-10.718-13.333c-19.273-20.307-46.144-32.047-74.63-32.047
			c-7.619,0-15.227,0.829-22.577,2.475l-19.048-16.766l9.653-25.246c10.428-2.335,21.189-3.508,31.972-3.508
			c42.658,0,82.754,18.542,110.314,50.363c3.82,4.401,7.393,9.072,10.707,13.968C380.325,126.416,388.944,154.632,388.944,183.881z"
			/>
		
			<path style="fill:#9ABAE3;stroke:#263238;stroke-width:2.5;stroke-linecap:round;stroke-linejoin:round;stroke-miterlimit:10;" d="
			M388.944,183.881c0,80.484-65.472,145.956-145.956,145.956v-43.045c56.744,0,102.91-46.166,102.91-102.91
			c0-20.629-6.069-40.516-17.563-57.519c-3.228-4.778-6.812-9.233-10.718-13.333l10.524-24.709l25.161-0.02
			c3.82,4.401,7.393,9.072,10.707,13.968C380.325,126.416,388.944,154.632,388.944,183.881z"/>
		
			<path style="fill:#EC644E;stroke:#263238;stroke-width:2.5;stroke-linecap:round;stroke-linejoin:round;stroke-miterlimit:10;" d="
			M46.882,329.918l-0.019-43.045l196.121-0.084c41.465,0,78.687-24.673,94.838-62.857l27.448-6.984l12.197,23.752
			c-22.902,54.147-75.686,89.134-134.473,89.134L46.882,329.918z"/>
	</g>
</g>
<g id="Text">
	<g>
		<g>
			<g>
				<path style="fill:#9ABAE3;" d="M261.535,58.026l-3.633-0.354l-0.938,9.617l-3.473-0.339l0.939-9.618l-3.652-0.356l0.296-3.028
					l10.758,1.05L261.535,58.026z"/>
				<path style="fill:#9ABAE3;" d="M271.914,66.759l-0.594,2.984l-8.88-1.769l2.481-12.461l8.722,1.737l-0.593,2.984l-5.301-1.056
					l-0.35,1.755l4.528,0.901l-0.552,2.774l-4.528-0.902l-0.392,1.966L271.914,66.759z"/>
				<path style="fill:#9ABAE3;" d="M283.311,64.358c-0.28-0.31-0.578-0.6-0.895-0.871c-0.266-0.231-0.572-0.464-0.918-0.7
					c-0.345-0.237-0.701-0.41-1.066-0.522c-0.297-0.09-0.547-0.117-0.752-0.079c-0.205,0.037-0.34,0.165-0.406,0.381
					c-0.049,0.16-0.038,0.307,0.034,0.441c0.072,0.134,0.191,0.273,0.359,0.418c0.168,0.144,0.379,0.3,0.635,0.465
					c0.255,0.165,0.542,0.359,0.861,0.58c0.507,0.342,0.954,0.684,1.343,1.026c0.388,0.343,0.7,0.703,0.934,1.08
					c0.235,0.377,0.377,0.791,0.426,1.243c0.049,0.452-0.013,0.963-0.186,1.533c-0.222,0.731-0.544,1.303-0.963,1.718
					c-0.419,0.415-0.894,0.704-1.424,0.867c-0.53,0.163-1.092,0.226-1.685,0.188c-0.593-0.038-1.169-0.142-1.729-0.312
					c-0.445-0.136-0.891-0.309-1.337-0.52c-0.448-0.211-0.883-0.45-1.307-0.716c-0.424-0.267-0.824-0.55-1.2-0.852
					c-0.375-0.301-0.713-0.616-1.012-0.944l2.33-2.489c0.323,0.373,0.671,0.723,1.046,1.049c0.313,0.282,0.68,0.563,1.1,0.84
					c0.42,0.278,0.87,0.489,1.35,0.635c0.365,0.111,0.633,0.141,0.806,0.087c0.172-0.053,0.283-0.16,0.332-0.32
					c0.052-0.171,0.025-0.339-0.081-0.502c-0.107-0.164-0.272-0.329-0.494-0.497c-0.223-0.168-0.484-0.347-0.781-0.538
					c-0.298-0.19-0.61-0.404-0.937-0.641c-0.481-0.346-0.884-0.684-1.206-1.013c-0.324-0.329-0.571-0.666-0.74-1.011
					c-0.169-0.344-0.262-0.707-0.278-1.085c-0.015-0.379,0.045-0.791,0.18-1.236c0.205-0.673,0.508-1.229,0.91-1.668
					c0.402-0.439,0.866-0.765,1.393-0.979c0.527-0.214,1.087-0.326,1.684-0.338c0.595-0.012,1.196,0.075,1.801,0.259
					c0.446,0.136,0.866,0.31,1.263,0.525c0.396,0.214,0.771,0.447,1.124,0.698c0.354,0.251,0.679,0.506,0.974,0.764
					c0.295,0.258,0.56,0.498,0.791,0.718L283.311,64.358z"/>
				<path style="fill:#9ABAE3;" d="M297.398,68.731l-3.367-1.412l-3.737,8.912l-3.218-1.349l3.737-8.912l-3.383-1.419l1.177-2.805
					l9.968,4.18L297.398,68.731z"/>
			</g>
		</g>
		<g>
			<path style="fill:#FFFFFF;" d="M138.529,133.333l-11.241-5.922l2.277-4.322c0.489-0.929,1.068-1.669,1.736-2.221
				c0.668-0.551,1.381-0.931,2.138-1.139c0.757-0.208,1.54-0.254,2.348-0.138c0.809,0.116,1.598,0.377,2.369,0.782
				c0.855,0.451,1.557,0.993,2.107,1.626c0.55,0.633,0.939,1.327,1.168,2.082c0.23,0.755,0.295,1.551,0.197,2.389
				c-0.098,0.838-0.372,1.685-0.823,2.54L138.529,133.333z M136.505,123.508c-0.432-0.228-0.859-0.378-1.279-0.451
				c-0.42-0.073-0.814-0.068-1.181,0.015c-0.367,0.083-0.706,0.245-1.015,0.487c-0.31,0.241-0.567,0.558-0.773,0.948l-0.651,1.235
				l5.858,3.087l0.651-1.235c0.211-0.401,0.326-0.799,0.345-1.194c0.02-0.394-0.046-0.769-0.196-1.125
				c-0.15-0.355-0.375-0.683-0.675-0.983C137.288,123.992,136.927,123.731,136.505,123.508z"/>
			<path style="fill:#FFFFFF;" d="M147.474,112.365l2.526,1.695l-5.047,7.518l-10.549-7.081l4.957-7.385l2.526,1.696l-3.012,4.487
				l1.486,0.997l2.573-3.833l2.348,1.576l-2.573,3.833l1.664,1.117L147.474,112.365z"/>
			<path style="fill:#FFFFFF;" d="M151.321,112.313l-9.802-8.084l3.484-4.225c0.395-0.479,0.858-0.839,1.39-1.081
				c0.532-0.242,1.076-0.377,1.633-0.405c0.557-0.028,1.108,0.044,1.654,0.216c0.546,0.172,1.027,0.429,1.441,0.771
				c0.433,0.357,0.789,0.783,1.07,1.277c0.281,0.494,0.464,1.013,0.55,1.555c0.086,0.543,0.058,1.092-0.083,1.647
				c-0.141,0.556-0.41,1.074-0.804,1.552l-1.321,1.601l3.01,2.482L151.321,112.313z M148.184,105.203l1.173-1.422
				c0.136-0.165,0.188-0.382,0.153-0.65c-0.034-0.268-0.249-0.565-0.645-0.892c-0.405-0.334-0.749-0.479-1.034-0.435
				c-0.283,0.045-0.494,0.149-0.63,0.315l-1.116,1.353L148.184,105.203z"/>
			<path style="fill:#FFFFFF;" d="M158.915,103.346l-8.967-9.001l2.472-2.463l6.82,6.846l4.082-4.067l2.147,2.155L158.915,103.346z"
				/>
			<path style="fill:#FFFFFF;" d="M171.188,92.205c-0.753,0.605-1.553,1.01-2.398,1.214c-0.846,0.205-1.675,0.248-2.49,0.129
				c-0.814-0.118-1.585-0.383-2.313-0.793c-0.728-0.41-1.349-0.936-1.864-1.578c-0.523-0.651-0.901-1.38-1.136-2.186
				c-0.235-0.806-0.312-1.621-0.23-2.443c0.081-0.823,0.321-1.62,0.719-2.391c0.398-0.771,0.964-1.452,1.699-2.042
				c0.753-0.605,1.553-1.01,2.398-1.215c0.846-0.204,1.677-0.245,2.496-0.122c0.818,0.123,1.589,0.392,2.311,0.806
				c0.723,0.415,1.339,0.938,1.846,1.57c0.523,0.651,0.9,1.378,1.131,2.179c0.231,0.801,0.308,1.612,0.231,2.431
				s-0.312,1.616-0.707,2.392C172.487,90.931,171.923,91.614,171.188,92.205z M164.907,88.986c0.269,0.335,0.575,0.621,0.918,0.858
				c0.343,0.237,0.705,0.402,1.085,0.494c0.38,0.092,0.772,0.099,1.176,0.02c0.403-0.079,0.8-0.276,1.19-0.589
				c0.391-0.314,0.669-0.663,0.834-1.049c0.165-0.385,0.239-0.773,0.222-1.166c-0.016-0.392-0.108-0.782-0.273-1.169
				c-0.165-0.387-0.379-0.743-0.641-1.069c-0.269-0.335-0.576-0.62-0.918-0.858c-0.343-0.237-0.706-0.397-1.087-0.481
				c-0.381-0.084-0.771-0.084-1.171-0.001c-0.4,0.084-0.79,0.279-1.171,0.585c-0.391,0.314-0.668,0.659-0.832,1.036
				c-0.164,0.377-0.24,0.763-0.228,1.159c0.012,0.396,0.099,0.785,0.261,1.168C164.434,88.307,164.646,88.661,164.907,88.986z"/>
			<path style="fill:#FFFFFF;" d="M172.553,75.318l4.874,3.404l-1-5.882l3.196-2.044l0.886,9.523l2.266,3.543l-2.925,1.87
				l-2.285-3.573l-8.194-4.807L172.553,75.318z"/>
		</g>
		<g>
			<path style="fill:#FFFFFF;" d="M151.099,252.79l-10.444,7.234l-3.322-4.796c-0.353-0.509-0.573-1.054-0.662-1.631
				c-0.088-0.577-0.07-1.138,0.054-1.681c0.125-0.543,0.344-1.054,0.658-1.533c0.314-0.479,0.692-0.871,1.133-1.177
				c0.608-0.421,1.266-0.681,1.974-0.779c0.708-0.099,1.392-0.028,2.051,0.212l2.311-4.866l2.242,3.236l-1.934,4.06l0.744,1.074
				l3.207-2.221L151.099,252.79z M143.404,253.875l-1.253-1.809c-0.123-0.176-0.334-0.273-0.635-0.289
				c-0.301-0.016-0.629,0.098-0.982,0.343c-0.363,0.251-0.579,0.531-0.648,0.84c-0.069,0.309-0.043,0.552,0.08,0.728l1.202,1.736
				L143.404,253.875z"/>
			<path style="fill:#FFFFFF;" d="M137.013,235.826l2.666-1.466l4.364,7.934l-11.132,6.124l-4.287-7.792l2.665-1.467l2.605,4.735
				l1.568-0.863l-2.226-4.045l2.478-1.363l2.225,4.045l1.756-0.966L137.013,235.826z"/>
			<path style="fill:#FFFFFF;" d="M126.051,235.06l6.697-5.53l-8.62,0.98l-1.428-3.379l13.522-0.643l1.128,2.67l-9.865,9.297
				L126.051,235.06z"/>
			<path style="fill:#FFFFFF;" d="M134.007,220.611l-12.071,3.965l-1.089-3.315l12.071-3.965L134.007,220.611z"/>
			<path style="fill:#FFFFFF;" d="M126.934,206.542l2.954-0.726l2.161,8.793l-12.339,3.032l-2.122-8.637l2.954-0.726l1.289,5.249
				l1.738-0.427l-1.102-4.484l2.746-0.674l1.102,4.484l1.946-0.478L126.934,206.542z"/>
			<path style="fill:#FFFFFF;" d="M116.215,201.098l-0.348-3.184l3.775-1.528l-4.018-0.695l-0.347-3.184l6.258,1.423l2.534-1.195
				l-8.961-1.776l-0.412-3.772l13.17,3.567l0.315,2.882l-4.323,2.29l4.713,1.286l0.314,2.882l-12.091,6.324l-0.41-3.753l8.364-3.685
				l-2.728-0.585L116.215,201.098z"/>
		</g>
		<g>
			<path style="fill:#FFFFFF;" d="M340.57,118.258l10.88-6.561l2.522,4.184c0.542,0.899,0.876,1.777,1.003,2.634
				c0.127,0.857,0.084,1.664-0.129,2.419c-0.213,0.755-0.579,1.449-1.096,2.082c-0.518,0.632-1.149,1.174-1.895,1.623
				c-0.827,0.499-1.654,0.82-2.48,0.963c-0.827,0.143-1.622,0.117-2.387-0.076c-0.765-0.194-1.48-0.549-2.147-1.066
				c-0.667-0.517-1.25-1.189-1.75-2.017L340.57,118.258z M350.027,121.603c0.418-0.252,0.768-0.54,1.047-0.861
				c0.28-0.322,0.479-0.662,0.598-1.019s0.155-0.731,0.109-1.12c-0.047-0.39-0.184-0.774-0.412-1.151l-0.721-1.196l-5.67,3.419
				l0.721,1.196c0.235,0.388,0.516,0.692,0.844,0.913c0.327,0.22,0.682,0.358,1.064,0.413c0.381,0.055,0.779,0.032,1.191-0.07
				C349.208,122.025,349.618,121.85,350.027,121.603z"/>
			<path style="fill:#FFFFFF;" d="M353.891,136.743l-2.757,1.285l-3.826-8.206l11.516-5.369l3.757,8.061l-2.757,1.285l-2.284-4.898
				l-1.621,0.756l1.95,4.184l-2.562,1.195l-1.951-4.185l-1.816,0.847L353.891,136.743z"/>
			<path style="fill:#FFFFFF;" d="M364.777,138.239l-7.051,5.07l8.666-0.402l1.198,3.467l-13.534-0.263l-0.947-2.74l10.464-8.617
				L364.777,138.239z"/>
			<path style="fill:#FFFFFF;" d="M360.936,160.161l-2.963,0.692l-2.059-8.818l12.373-2.889l2.022,8.661l-2.962,0.692l-1.229-5.263
				l-1.742,0.407l1.049,4.496l-2.753,0.643l-1.051-4.496l-1.951,0.456L360.936,160.161z"/>
			<path style="fill:#FFFFFF;" d="M358.346,163.061l12.594-1.681l0.461,3.459l-9.578,1.279l0.763,5.712l-3.015,0.402
				L358.346,163.061z"/>
			<path style="fill:#FFFFFF;" d="M359.774,179.569c-0.026-0.966,0.136-1.847,0.486-2.644c0.35-0.797,0.818-1.484,1.405-2.06
				c0.587-0.576,1.265-1.029,2.032-1.36c0.767-0.331,1.562-0.506,2.385-0.528c0.834-0.021,1.644,0.118,2.427,0.42
				c0.784,0.302,1.479,0.734,2.084,1.297c0.606,0.563,1.095,1.236,1.468,2.02c0.372,0.784,0.571,1.647,0.596,2.589
				c0.025,0.966-0.137,1.847-0.486,2.644c-0.349,0.796-0.821,1.483-1.414,2.059c-0.594,0.577-1.274,1.027-2.042,1.351
				c-0.767,0.324-1.556,0.497-2.366,0.518c-0.835,0.022-1.642-0.118-2.419-0.42c-0.778-0.302-1.47-0.731-2.074-1.288
				c-0.606-0.557-1.098-1.227-1.476-2.011C360,181.374,359.798,180.511,359.774,179.569z M366.138,176.52
				c-0.429,0.011-0.842,0.082-1.238,0.212c-0.397,0.129-0.747,0.317-1.051,0.564c-0.304,0.246-0.547,0.554-0.728,0.923
				c-0.181,0.369-0.265,0.804-0.253,1.305c0.013,0.501,0.123,0.933,0.33,1.298c0.206,0.364,0.47,0.659,0.792,0.883
				c0.322,0.224,0.688,0.387,1.096,0.49c0.409,0.102,0.822,0.149,1.239,0.137c0.429-0.011,0.842-0.081,1.239-0.211
				c0.396-0.13,0.743-0.321,1.041-0.573c0.297-0.253,0.534-0.563,0.709-0.932c0.175-0.369,0.256-0.797,0.244-1.286
				c-0.013-0.501-0.12-0.931-0.32-1.29c-0.201-0.359-0.462-0.653-0.784-0.883c-0.323-0.23-0.685-0.397-1.088-0.5
				S366.556,176.51,366.138,176.52z"/>
			<path style="fill:#FFFFFF;" d="M359.885,188.07l12.661,1.064l-0.458,5.457c-0.052,0.618-0.229,1.178-0.528,1.679
				c-0.299,0.502-0.67,0.922-1.112,1.263c-0.441,0.34-0.936,0.595-1.482,0.764c-0.547,0.17-1.089,0.232-1.623,0.187
				c-0.559-0.047-1.095-0.194-1.606-0.44c-0.512-0.247-0.958-0.568-1.337-0.965c-0.38-0.397-0.67-0.865-0.87-1.402
				c-0.2-0.538-0.275-1.116-0.222-1.734l0.174-2.068l-3.888-0.327L359.885,188.07z M366.512,192.129l-0.154,1.837
				c-0.018,0.214,0.064,0.421,0.244,0.622c0.18,0.2,0.527,0.322,1.038,0.365c0.523,0.044,0.889-0.033,1.097-0.231
				c0.208-0.198,0.321-0.404,0.339-0.618l0.147-1.748L366.512,192.129z"/>
		</g>
		<g>
			<g>
				<path style="fill:#FFFFFF;" d="M266.89,309.252l-2.783-12.397l4.767-1.07c1.024-0.23,1.963-0.27,2.816-0.119
					c0.853,0.152,1.604,0.447,2.253,0.889c0.65,0.441,1.192,1.007,1.629,1.697c0.436,0.691,0.75,1.462,0.941,2.311
					c0.211,0.943,0.254,1.828,0.128,2.658c-0.125,0.829-0.401,1.575-0.826,2.239c-0.426,0.664-0.99,1.231-1.691,1.7
					c-0.702,0.47-1.524,0.81-2.467,1.022L266.89,309.252z M273.055,301.339c-0.106-0.478-0.268-0.899-0.486-1.267
					c-0.217-0.367-0.475-0.663-0.777-0.889c-0.301-0.227-0.645-0.378-1.029-0.457c-0.384-0.079-0.792-0.07-1.223,0.027l-1.362,0.305
					l1.45,6.461l1.362-0.305c0.442-0.099,0.82-0.27,1.133-0.511c0.313-0.241,0.555-0.534,0.729-0.879
					c0.173-0.344,0.277-0.728,0.311-1.151C273.195,302.249,273.159,301.804,273.055,301.339z"/>
				<path style="fill:#FFFFFF;" d="M288.624,300.023l0.976,2.882l-8.577,2.904l-4.075-12.034l8.424-2.853l0.976,2.882l-5.118,1.733
					l0.574,1.695l4.372-1.481l0.907,2.678l-4.373,1.481l0.644,1.898L288.624,300.023z"/>
				<path style="fill:#FFFFFF;" d="M296.168,290.704c-0.414-0.048-0.83-0.07-1.246-0.065c-0.353,0.002-0.737,0.029-1.153,0.079
					c-0.416,0.051-0.797,0.155-1.145,0.312c-0.283,0.128-0.489,0.274-0.618,0.437c-0.129,0.164-0.147,0.348-0.053,0.554
					c0.069,0.153,0.174,0.255,0.316,0.309c0.142,0.054,0.324,0.08,0.546,0.078c0.221-0.002,0.483-0.026,0.783-0.07
					c0.301-0.044,0.645-0.088,1.031-0.132c0.606-0.078,1.168-0.116,1.686-0.115c0.518,0.002,0.989,0.067,1.414,0.195
					c0.424,0.129,0.805,0.346,1.14,0.654c0.335,0.306,0.625,0.732,0.871,1.275c0.315,0.696,0.451,1.337,0.41,1.926
					c-0.042,0.588-0.208,1.119-0.498,1.591c-0.291,0.471-0.671,0.89-1.142,1.253c-0.471,0.364-0.973,0.666-1.506,0.907
					c-0.423,0.192-0.873,0.356-1.349,0.492c-0.474,0.136-0.959,0.245-1.453,0.324c-0.495,0.08-0.983,0.13-1.464,0.152
					c-0.482,0.021-0.943,0.007-1.385-0.042l0.109-3.408c0.489,0.068,0.981,0.1,1.478,0.098c0.421,0.005,0.883-0.027,1.382-0.095
					c0.499-0.069,0.977-0.206,1.433-0.412c0.349-0.158,0.569-0.314,0.663-0.467c0.094-0.154,0.107-0.307,0.038-0.459
					c-0.074-0.163-0.204-0.271-0.392-0.323c-0.188-0.053-0.421-0.069-0.699-0.047c-0.279,0.02-0.592,0.059-0.942,0.111
					c-0.348,0.053-0.725,0.099-1.126,0.136c-0.589,0.059-1.114,0.07-1.575,0.036c-0.46-0.034-0.868-0.125-1.223-0.273
					c-0.355-0.147-0.663-0.358-0.924-0.632c-0.261-0.275-0.488-0.623-0.68-1.047c-0.29-0.642-0.43-1.26-0.417-1.854
					c0.012-0.594,0.147-1.146,0.401-1.654c0.254-0.508,0.603-0.963,1.042-1.365c0.44-0.402,0.948-0.734,1.524-0.994
					c0.424-0.192,0.856-0.337,1.294-0.438c0.439-0.1,0.874-0.173,1.306-0.218c0.431-0.044,0.843-0.067,1.236-0.068
					c0.393-0.001,0.749,0.005,1.069,0.017L296.168,290.704z"/>
				<path style="fill:#FFFFFF;" d="M304.005,296.278l-6.112-11.14l3.059-1.678l6.112,11.139L304.005,296.278z"/>
				<path style="fill:#FFFFFF;" d="M316.958,287.129c-0.332,1.138-0.989,2.034-1.972,2.689c-0.685,0.456-1.421,0.771-2.209,0.944
					c-0.788,0.174-1.57,0.182-2.348,0.027c-0.777-0.156-1.53-0.479-2.258-0.969c-0.728-0.49-1.38-1.167-1.954-2.031
					c-0.496-0.744-0.818-1.529-0.967-2.355c-0.149-0.825-0.137-1.636,0.036-2.432c0.172-0.795,0.497-1.55,0.976-2.262
					c0.479-0.713,1.1-1.324,1.864-1.834c0.477-0.318,0.968-0.57,1.475-0.756c0.506-0.186,1.014-0.302,1.521-0.346
					c0.508-0.045,1.005-0.025,1.491,0.06c0.487,0.085,0.943,0.243,1.37,0.475l-1.059,3.091c-0.486-0.278-1.022-0.405-1.608-0.38
					c-0.585,0.025-1.112,0.193-1.578,0.503c-0.348,0.232-0.619,0.512-0.814,0.844c-0.196,0.331-0.315,0.69-0.359,1.076
					c-0.043,0.387-0.01,0.792,0.099,1.214c0.109,0.422,0.299,0.837,0.57,1.244c0.278,0.417,0.589,0.754,0.933,1.013
					c0.344,0.258,0.704,0.438,1.079,0.539c0.376,0.101,0.757,0.119,1.144,0.055c0.387-0.065,0.765-0.219,1.133-0.464
					c0.844-0.562,1.357-1.405,1.539-2.531l-1.833,1.221l-1.389-2.086l4.35-2.896l3.749,5.63l-2.397,1.597L316.958,287.129z"/>
				<path style="fill:#FFFFFF;" d="M321.374,277.236l4.048,4.756l-2.657,2.262l-8.236-9.675l2.071-1.763l8.071,1.613l-4.188-4.92
					l2.657-2.262l8.236,9.674l-2.111,1.799L321.374,277.236z"/>
			</g>
		</g>
		<g>
			<path style="fill:#FFFFFF;" d="M122.442,316.021v-12.706h5.476c0.62,0,1.192,0.129,1.718,0.385
				c0.525,0.256,0.975,0.59,1.351,1.001c0.376,0.412,0.671,0.884,0.885,1.414c0.215,0.531,0.322,1.065,0.322,1.602
				c0,0.561-0.102,1.106-0.304,1.637c-0.203,0.531-0.486,1.002-0.85,1.413c-0.364,0.412-0.805,0.74-1.324,0.985
				c-0.519,0.244-1.089,0.367-1.709,0.367h-2.076v3.901H122.442z M125.931,309.077h1.843c0.215,0,0.415-0.098,0.6-0.295
				c0.185-0.197,0.277-0.551,0.277-1.064c0-0.526-0.107-0.883-0.322-1.074c-0.215-0.191-0.429-0.286-0.644-0.286h-1.754V309.077z"/>
			<path style="fill:#FFFFFF;" d="M134.485,316.021v-12.706h3.49v9.664h5.762v3.042H134.485z"/>
			<path style="fill:#FFFFFF;" d="M149.141,303.315h3.185l4.402,12.706h-3.544l-0.769-2.487h-3.382l-0.752,2.487h-3.561
				L149.141,303.315z M151.861,311.207l-1.127-3.937l-1.181,3.937H151.861z"/>
			<path style="fill:#FFFFFF;" d="M162.168,309.775v6.246h-3.49v-12.706h2.72l5.1,6.46v-6.46h3.49v12.706h-2.774L162.168,309.775z"
				/>
		</g>
	</g>
</g>
</svg>
